#!OML:ASF F:\VICON\USERDATA\INSTALL\rory3\rory3.ASF
:FULLY-SPECIFIED
:DEGREES
220
root 0.515023633763875 17.733395288490474 62.68789371377835 -2.2963732339856024 -2.068070617702167 -1.8515260064884198
lfemur -9.047086772677 -2.3983215515103726 -18.593459876718654
ltibia 27.740694819885697
lfoot 2.218156926283351 -2.264743629570641
ltoes -5.8581914351942865
rfemur -17.82073337637345 3.465196125130314 24.6513916667759
rtibia 37.97721934366233
rfoot -7.577182134825136 -9.937727996657838
rtoes 2.57818230401585
lowerback 11.957581577008462 0.020060136398360517 0.933996611577055
upperback 0.3215109918661373 0.33883402652487926 1.84019342654441
thorax -6.032402053837239 0.15902298930337516 0.7876199801602461
lowerneck -16.383645223306814 -3.0458146702119135 -3.4065080638562817
upperneck 22.05454966787956 -3.7333806131562306 1.7405758521616794
head 9.674535858660157 -1.8068742493090626 0.7471076242187403
lclavicle -2.0260216448120395e-15 -7.11477803202811e-16
lhumerus -32.47010616140583 2.3322748158555964 80.25019658601943
lradius 26.564904390595103
lwrist 6.216943256100851
lhand -29.434037852858527 19.666473096031098
lfingers 7.12502
lthumb -2.637253728417961 50.06435450506328
rclavicle -2.026899702734683e-15 -7.120159834086918e-16
rhumerus -29.846978198111408 -22.04244881834211 -75.03735299985556
rradius 20.548675002207364
rwrist 5.6433572021613285
rhand -17.114363286125773 21.65526159388211
rfingers 7.12502
rthumb 8.355191502725228 -6.912105088149972
221
root 0.5178857722016997 17.756733630800728 62.65796012787619 -2.359514337917544 -2.1099773625692144 -1.6676556374191083
lfemur -8.361313025917035 -2.4042151422074647 -18.780736250202438
ltibia 27.528735921132878
lfoot 3.535884200720595 -2.928853357782261
ltoes -6.231322814070687
rfemur -17.982900138670622 3.7341560946202312 24.4102120831724
rtibia 37.551643754955144
rfoot -7.415960078659457 -9.871610931282994
rtoes 2.500895091475952
lowerback 11.895340667674226 -0.014482039824208315 0.7254649122718758
upperback 0.3331309020184071 0.24912371876397268 1.818081058940549
thorax -5.984489513762257 0.11583267073075439 0.9824275267176599
lowerneck -16.360335144027335 -3.0198486304056296 -3.443113921705212
upperneck 22.047594139718093 -3.6870368720100735 1.7144005575813495
head 9.661497303818408 -1.7934653916554295 0.7555074166366771
lclavicle -2.0258857039287327e-15 -7.113912296728676e-16
lhumerus -32.17072076935478 2.14693343711978 80.3127597943318
lradius 26.978760559373857
lwrist 6.8581172182691015
lhand -29.5389775334419 19.476224950568778
lfingers 7.12502
lthumb -2.771283487130234 49.89264452251152
rclavicle -2.0273677847997122e-15 -7.123148541300445e-16
rhumerus -29.742007870075227 -21.625001358537098 -75.19435908562606
rradius 20.721877518791054
rwrist 5.519662343323933
rhand -17.04000330072922 21.639051874000778
rfingers 7.12502
rthumb 8.370370397125733 -6.921435418150672
222
root 0.5148258514833343 17.76317835390504 62.818144157250046 -2.2437105948592335 -2.0611429305170237 -1.4098025937709278
lfemur -7.5664778241920185 -2.4274073886999354 -19.066268250749243
ltibia 27.265842214879726
lfoot 4.224581885081074 -3.7324824507073675
ltoes -6.7200162722625345
rfemur -18.216498646156584 3.9728176748517834 24.06925507637128
rtibia 37.289922680359886
rfoot -7.1672245967421695 -9.75240466782264
rtoes 2.7492481932895325
lowerback 11.78406533023863 -0.07582267565945108 0.45805991789587697
upperback 0.318228782670006 0.12359085902178846 1.774530190429996
thorax -5.915341507198381 0.060927451489734996 1.2350818343331482
lowerneck -16.34056673406072 -2.992251677317408 -3.458920975569006
upperneck 22.041552082395498 -3.632161325753203 1.6906797035425365
head 9.651771017730812 -1.7771359172809253 0.7606544143408485
lclavicle -2.0264521469670247e-15 -7.117522565763033e-16
lhumerus -31.861187941077727 1.7180664361969815 80.43007220353927
lradius 27.57107208515925
lwrist 7.824955708207754
lhand -29.803197339825847 19.08337117668824
lfingers 7.12502
lthumb -3.034195920607255 49.53041710987289
rclavicle -2.027403923432917e-15 -7.123379013731008e-16
rhumerus -29.59896427756594 -21.1421801695302 -75.42302388144024
rradius 20.936697809247217
rwrist 5.283956193908506
rhand -16.96892279673666 21.660518684561612
rfingers 7.12502
rthumb 8.391743788971446 -6.82224394005951
223
root 0.5020575136845606 17.76236287670107 62.69653521602135 -2.1572478572083513 -1.9482612582751644 -1.6083830064495392
lfemur -6.824557597829501 -2.449758945415963 -18.88461055858132
ltibia 27.250976914164003
lfoot 4.901858448345241 -4.174801414226467
ltoes -6.822880049744722
rfemur -18.330650675324602 4.27405396241403 24.085427624484122
rtibia 36.77709605953275
rfoot -6.850481424290567 -9.703355361932472
rtoes 3.0946943568014413
lowerback 11.75188639601463 -0.1666097122656481 0.5584938027085957
upperback 0.288699891499156 0.0322314681476526 1.8029229322692417
thorax -5.873220333737425 0.005269989908672806 1.348670880343986
lowerneck -16.32974048311774 -2.981522191430725 -3.4808496977386034
upperneck 22.019196396929264 -3.6141135486013454 1.677257723025381
head 9.637733233676425 -1.772862264453428 0.7642512714578338
lclavicle -2.02740874619472e-15 -7.123629462004596e-16
lhumerus -31.567961606158104 1.3419637668575888 80.47927599604422
lradius 28.188117801395403
lwrist 8.59043685311511
lhand -30.12349459519408 18.79595558113334
lfingers 7.12502
lthumb -3.3426420134584514 49.15989372408741
rclavicle -2.0282536688073164e-15 -7.128804784698233e-16
rhumerus -29.380451826636087 -20.657907634199468 -75.68231218139766
rradius 21.120484615898427
rwrist 5.143194151143436
rhand -16.909211171383177 21.69650972788253
rfingers 7.12502
rthumb 8.402520744544269 -6.774208900400558
224
root 0.4920874983377135 17.764595627964393 62.555799905821736 -2.1841132875223552 -1.796798118799368 -1.6419982966056514
lfemur -6.168412795927051 -2.5434714855311675 -18.852110226688758
ltibia 27.178328527050738
lfoot 5.69186908397082 -4.622124127734049
ltoes -5.365995017450523
rfemur -18.3589183520989 4.407932121680432 23.985985499042535
rtibia 36.276798214186286
rfoot -6.514767414433101 -9.6761776800461
rtoes 3.1690360672979416
lowerback 11.688225017759205 -0.26262434486977937 0.6056230070488133
upperback 0.2859991332749213 -0.09109345864062163 1.815332484783487
thorax -5.810218167527827 -0.06367209237967997 1.4593049613345919
lowerneck -16.321111799025523 -2.9690380609242917 -3.495041976690538
upperneck 22.03057860665448 -3.5893132002910373 1.651026207771146
head 9.64929985836982 -1.7670083074080871 0.7613075274250201
lclavicle -2.02696020960974e-15 -7.120772118118388e-16
lhumerus -31.320420098249286 1.0822494353776717 80.49714381872874
lradius 28.75002254503414
lwrist 8.895289449811845
lhand -30.405348621021087 18.711862541227493
lfingers 7.12502
lthumb -3.5783748277139433 49.01811863849524
rclavicle -2.028245394001513e-15 -7.12875190241963e-16
rhumerus -29.214265377298435 -20.442026132900967 -75.80670256463306
rradius 21.206237550449735
rwrist 5.199449239212108
rhand -16.907518959310018 21.726340676390762
rfingers 7.12502
rthumb 8.368270150100694 -6.678754141017644
